<svg id="visual" viewBox="0 0 900 600" width="900" height="600" xmlns="http://www.w3.org/2000/svg" xmlns:xlink="http://www.w3.org/1999/xlink" version="1.1"><rect x="0" y="0" width="900" height="600" fill="#405D72"></rect><path d="M0 417L21.5 406.2C43 395.3 86 373.7 128.8 365.7C171.7 357.7 214.3 363.3 257.2 372.5C300 381.7 343 394.3 385.8 404.8C428.7 415.3 471.3 423.7 514.2 422.2C557 420.7 600 409.3 642.8 401.8C685.7 394.3 728.3 390.7 771.2 387C814 383.3 857 379.7 878.5 377.8L900 376L900 601L878.5 601C857 601 814 601 771.2 601C728.3 601 685.7 601 642.8 601C600 601 557 601 514.2 601C471.3 601 428.7 601 385.8 601C343 601 300 601 257.2 601C214.3 601 171.7 601 128.8 601C86 601 43 601 21.5 601L0 601Z" fill="#fff8f3"></path><path d="M0 426L21.5 421.2C43 416.3 86 406.7 128.8 402.3C171.7 398 214.3 399 257.2 400.3C300 401.7 343 403.3 385.8 404.7C428.7 406 471.3 407 514.2 416.5C557 426 600 444 642.8 455.8C685.7 467.7 728.3 473.3 771.2 469C814 464.7 857 450.3 878.5 443.2L900 436L900 601L878.5 601C857 601 814 601 771.2 601C728.3 601 685.7 601 642.8 601C600 601 557 601 514.2 601C471.3 601 428.7 601 385.8 601C343 601 300 601 257.2 601C214.3 601 171.7 601 128.8 601C86 601 43 601 21.5 601L0 601Z" fill="#e6d7d7"></path><path d="M0 472L21.5 468.2C43 464.3 86 456.7 128.8 454.8C171.7 453 214.3 457 257.2 455.8C300 454.7 343 448.3 385.8 451.7C428.7 455 471.3 468 514.2 478.2C557 488.3 600 495.7 642.8 488.7C685.7 481.7 728.3 460.3 771.2 453C814 445.7 857 452.3 878.5 455.7L900 459L900 601L878.5 601C857 601 814 601 771.2 601C728.3 601 685.7 601 642.8 601C600 601 557 601 514.2 601C471.3 601 428.7 601 385.8 601C343 601 300 601 257.2 601C214.3 601 171.7 601 128.8 601C86 601 43 601 21.5 601L0 601Z" fill="#c7b9c1"></path><path d="M0 525L21.5 519.8C43 514.7 86 504.3 128.8 498.8C171.7 493.3 214.3 492.7 257.2 498.7C300 504.7 343 517.3 385.8 524.7C428.7 532 471.3 534 514.2 527.7C557 521.3 600 506.7 642.8 506.5C685.7 506.3 728.3 520.7 771.2 526.2C814 531.7 857 528.3 878.5 526.7L900 525L900 601L878.5 601C857 601 814 601 771.2 601C728.3 601 685.7 601 642.8 601C600 601 557 601 514.2 601C471.3 601 428.7 601 385.8 601C343 601 300 601 257.2 601C214.3 601 171.7 601 128.8 601C86 601 43 601 21.5 601L0 601Z" fill="#a09ead"></path><path d="M0 541L21.5 543.8C43 546.7 86 552.3 128.8 556.7C171.7 561 214.3 564 257.2 561C300 558 343 549 385.8 544.5C428.7 540 471.3 540 514.2 543C557 546 600 552 642.8 555.8C685.7 559.7 728.3 561.3 771.2 556.3C814 551.3 857 539.7 878.5 533.8L900 528L900 601L878.5 601C857 601 814 601 771.2 601C728.3 601 685.7 601 642.8 601C600 601 557 601 514.2 601C471.3 601 428.7 601 385.8 601C343 601 300 601 257.2 601C214.3 601 171.7 601 128.8 601C86 601 43 601 21.5 601L0 601Z" fill="#758694"></path></svg>